<?xml version="1.0" encoding="UTF-8"?>
<svg id="Isolation_Mode" data-name="Isolation Mode" xmlns="http://www.w3.org/2000/svg" viewBox="0 0 750 248.87">
  <defs>
    <style>
      .cls-1 {
        fill: #fff;
      }

      .cls-2 {
        fill: #eae9ef;
      }

      .cls-3 {
        fill: #e5202d;
      }
    </style>
  </defs>
  <g>
    <rect class="cls-1" x="1.03" y="14.69" width="750" height="233.96" rx="116.98" ry="116.98"/>
    <rect class="cls-3" x="1.03" y=".9" width="750" height="233.96" rx="116.98" ry="116.98"/>
  </g>
  <g>
    <path class="cls-2" d="m126.86,127.95c0,17.73-11.61,30.6-28.44,30.6-15.84,0-28.44-13.32-28.44-30.6v-8.91h12.51v7.74c0,11.7,6.21,20.07,16.02,20.07s15.66-7.74,15.66-20.07v-41.13h12.69v42.3Z"/>
    <path class="cls-2" d="m187.43,143.61h-11.88c-1.44,9.9-8.28,14.85-20.52,14.85h-1.35v-10.08h1.08c4.86,0,7.74-1.8,8.73-5.31-.99.36-3.51.54-7.74.54-11.79,0-20.43-8.55-20.43-20.52s8.46-20.34,20.43-20.34,19.98,8.64,19.98,20.61v8.19h11.7v12.06Zm-24.3-12.06v-8.73c0-5.31-3.15-8.73-7.74-8.73s-7.29,3.69-7.29,8.46c0,5.13,3.06,9,7.74,9h7.29Z"/>
    <path class="cls-2" d="m248.45,143.61h-64.35v-12.06h50.94c-.54-10.17-8.28-18.09-18.81-18.09-5.4,0-11.52,2.79-15.12,6.48-1.26-1.71-3.33-4.5-6.3-8.55,6.12-6.39,13.59-9.54,22.32-9.54,20.61.09,31.32,14.13,31.32,37.62v4.14Zm-26.01-47.61h-11.25v-10.35h11.25v10.35Z"/>
    <path class="cls-2" d="m315.32,143.61h-58.32v-12.06h32.67c0-12.6-6.84-18.18-22.86-18.18v-10.53c7.92,0,13.5.54,16.83,1.71,12.42,4.41,18.63,13.32,18.63,26.91h13.05v12.15Z"/>
    <path class="cls-2" d="m339.08,126.24c0,4.77-1.35,8.73-3.96,11.88-2.97,3.69-7.11,5.49-12.42,5.49h-11.88v-12.06h9.27c4.23,0,6.39-2.97,6.39-8.82v-37.08h12.6v40.59Z"/>
    <path class="cls-2" d="m360.86,143.61h-12.6v-58.05h12.6v58.05Z"/>
    <path class="cls-2" d="m456.71,143.61h-17.37c-4.95,9.36-14.04,14.94-24.57,14.94-15.84,0-28.44-13.32-28.44-30.6v-8.91h12.6v7.74c0,11.79,5.85,20.07,15.93,20.07s15.75-7.47,15.75-20.07v-41.13h12.6v45.9h13.5v12.06Z"/>
    <path class="cls-2" d="m463.91,158.55h-11.16v-10.44h11.16v10.44Zm31.41-14.94h-40.5v-12.06h8.28c4.23,0,6.3-2.88,6.3-8.64v-20.07h12.69v19.62c0,3.33-.45,6.3-1.44,9.09h14.67v12.06Zm-14.49,14.94h-11.16v-10.44h11.16v10.44Z"/>
    <path class="cls-2" d="m568.4,143.61h-75.24v-12.06h51.12c-.27-4.77-1.98-8.82-5.13-12.24-3.51-3.87-8.19-5.85-13.86-5.85s-11.52,2.79-15.03,6.48c-1.26-1.71-3.33-4.5-6.3-8.55,6.12-6.39,13.5-9.54,22.23-9.54,5.31,0,9.99.99,14.04,2.88,9.63,4.59,15.3,13.5,16.83,26.82h11.34v12.06Zm-35.64,14.94h-11.16v-10.44h11.16v10.44Z"/>
    <path class="cls-2" d="m657.14,143.61h-92.7v-12.06h9.54c4.14,0,6.39-2.25,6.39-8.55v-20.16h12.69v19.62c0,3.33-.54,6.39-1.53,9.09h8.01c4.23,0,6.39-2.7,6.39-8.1v-20.61h12.6v19.62c0,3.33-.54,6.39-1.53,9.09h8.01c4.23,0,6.39-2.7,6.39-8.1v-20.61h12.69v19.53c0,3.33-.54,6.39-1.62,9.18h14.67v12.06Z"/>
    <path class="cls-2" d="m664.25,96h-11.16v-10.35h11.16v10.35Zm17.82,30.24c0,4.77-1.35,8.73-3.96,11.88-2.97,3.69-7.11,5.49-12.33,5.49h-10.71v-12.06h8.01c4.23,0,6.39-2.97,6.39-8.82v-19.89h12.6v23.4Zm-.81-30.24h-11.25v-10.35h11.25v10.35Z"/>
  </g>
</svg>